#!OML:ASF H:\Punching\Project 1\Capture day 1\Session 1\female.ASF
:FULLY-SPECIFIED
:DEGREES
2220
root 0.76267 15.405 4.1347 -30.4497 -34.3325 13.3578
lowerback 8.83214 4.90302 8.1515
upperback 3.19635 7.09458 -7.89599
thorax 0.514549 3.8227 -13.7204
lowerneck -1.80741 7.08485 14.2833
upperneck 42.7174 9.70068 -4.03845
head 16.8981 5.71896 -2.99945
rclavicle 6.26172e-014 3.97569e-014
rhumerus 18.1971 25.9498 -70.6742
rradius 123.485
rwrist -3.42907
rhand -29.9405 13.9118
rfingers 7.12502
rthumb -3.25997 -16.043
lclavicle 6.26172e-014 3.97569e-014
lhumerus -14.7356 -7.47968 54.5267
lradius 141.813
lwrist 0.82289
lhand -25.3429 0.949468
lfingers 7.12502
lthumb 1.1804 30.9259
rfemur 12.8664 7.8449 19.8799
rtibia 31.5586
rfoot -17.8383 -12.5618
rtoes 13.6055
lfemur -120.551 18.0933 -8.83081
ltibia 69.676
lfoot 37.5413 5.81736
ltoes -7.76401
2221
root 0.751477 15.3924 4.14335 -30.2805 -34.8177 13.2535
lowerback 8.68261 4.84093 8.27382
upperback 3.20541 7.01366 -7.87018
thorax 0.595647 3.78821 -13.7441
lowerneck -1.70058 7.29716 14.431
upperneck 42.7753 10.0426 -4.11547
head 16.9776 5.87397 -3.00827
rclavicle 4.4329e-014 7.95139e-016
rhumerus 17.7349 26.7613 -71.5115
rradius 123.723
rwrist -3.12682
rhand -29.9295 14.0954
rfingers 7.12502
rthumb -3.24934 -15.8596
lclavicle 4.4329e-014 7.95139e-016
lhumerus -14.6293 -7.15949 54.5726
lradius 141.672
lwrist 0.700401
lhand -25.7828 1.06677
lfingers 7.12502
lthumb 0.755499 31.0452
rfemur 12.6326 8.01893 20.2296
rtibia 31.6843
rfoot -17.8511 -12.7082
rtoes 13.7048
lfemur -118.781 19.3544 -5.48674
ltibia 62.4455
lfoot 37.2907 9.36313
ltoes -5.85963
2222
root 0.743174 15.3807 4.14679 -30.1872 -35.244 13.0408
lowerback 8.68608 4.74143 8.44769
upperback 3.29332 6.89492 -7.78979
thorax 0.664361 3.73757 -13.7484
lowerneck -1.63988 7.49992 14.5104
upperneck 42.8336 10.3799 -4.20326
head 17.0627 6.01453 -3.00922
rclavicle -2.18663e-014 -1.74931e-014
rhumerus 17.3287 27.5089 -72.1463
rradius 123.98
rwrist -2.96551
rhand -29.8781 14.2834
rfingers 7.12502
rthumb -3.19973 -15.6724
lclavicle -2.18663e-014 -1.74931e-014
lhumerus -14.5233 -6.95078 54.7492
lradius 141.471
lwrist 0.650303
lhand -26.4043 1.19298
lfingers 7.12502
lthumb 0.15522 31.1727
rfemur 12.5091 8.07025 20.6061
rtibia 31.826
rfoot -17.7881 -12.7
rtoes 13.8281
lfemur -116.07 20.5852 -1.07011
ltibia 55.0986
lfoot 36.2851 13.6766
ltoes -4.0363
2223
root 0.73666 15.3705 4.14628 -30.1835 -35.6197 12.7515
lowerback 8.81515 4.61694 8.64997
upperback 3.45388 6.75212 -7.66393
thorax 0.73162 3.67804 -13.727
lowerneck -1.61993 7.69033 14.5322
upperneck 42.9066 10.7039 -4.29242
head 17.1595 6.13987 -3.00162
rclavicle -6.36111e-014 1.11319e-014
rhumerus 16.979 28.1936 -72.5971
rradius 124.251
rwrist -2.93008
rhand -29.7725 14.477
rfingers 7.12502
rthumb -3.09774 -15.4803
lclavicle -6.36111e-014 1.11319e-014
lhumerus -14.4072 -6.8542 55.0494
lradius 141.227
lwrist 0.662506
lhand -27.1119 1.32825
lfingers 7.12502
lthumb -0.528195 31.3073
rfemur 12.5718 8.01994 21.0041
rtibia 31.8596
rfoot -17.6669 -12.6027
rtoes 13.9976
lfemur -112.252 21.7412 4.96417
ltibia 47.858
lfoot 34.4403 19.5224
ltoes -1.62406
2224
root 0.730701 15.3613 4.14333 -30.2177 -35.9565 12.3961
lowerback 8.99601 4.48128 8.86863
upperback 3.6593 6.59926 -7.49979
thorax 0.812211 3.61629 -13.6735
lowerneck -1.61463 7.86285 14.4985
upperneck 42.9984 11.0041 -4.36981
head 17.2613 6.24784 -2.98267
rclavicle 2.06736e-014 2.8625e-014
rhumerus 16.6855 28.7951 -72.8656
rradius 124.534
rwrist -3.01678
rhand -29.6434 14.6976
rfingers 7.12502
rthumb -2.97305 -15.2614
lclavicle 2.06736e-014 2.8625e-014
lhumerus -14.2865 -6.86973 55.4564
lradius 140.957
lwrist 0.714925
lhand -27.7936 1.51066
lfingers 7.12502
lthumb -1.18658 31.4871
rfemur 12.8048 7.90545 21.4359
rtibia 31.7317
rfoot -17.5125 -12.493
rtoes 14.1009
lfemur -107.063 22.6672 13.4848
ltibia 40.948
lfoot 31.1384 28.0901
ltoes 2.79475
2225
root 0.724713 15.3525 4.1399 -30.2492 -36.2736 11.9845
lowerback 9.17711 4.34633 9.10632
upperback 3.88607 6.4497 -7.30903
thorax 0.915609 3.55902 -13.599
lowerneck -1.60125 8.01452 14.4351
upperneck 43.1003 11.2754 -4.43871
head 17.3596 6.34036 -2.96002
rclavicle 4.33351e-014 -7.95139e-016
rhumerus 16.4371 29.3071 -72.9935
rradius 124.791
rwrist -3.14846
rhand -29.5156 14.9164
rfingers 7.12502
rthumb -2.84961 -15.0443
lclavicle 4.33351e-014 -7.95139e-016
lhumerus -14.1353 -6.98237 55.9523
lradius 140.662
lwrist 0.77458
lhand -28.3055 1.74484
lfingers 7.12502
lthumb -1.681 31.718
rfemur 13.1528 7.77197 21.9127
rtibia 31.4744
rfoot -17.352 -12.4034
rtoes 14.1534
lfemur -100.021 22.8664 25.8597
ltibia 34.5781
lfoot 23.0053 40.9479
ltoes 11.9608
2226
root 0.718526 15.343 4.13909 -30.2398 -36.581 11.5456
lowerback 9.31349 4.22221 9.35061
upperback 4.10313 6.3129 -7.1093
thorax 1.03696 3.50926 -13.5137
lowerneck -1.55464 8.14426 14.3614
upperneck 43.2061 11.5157 -4.49888
head 17.446 6.42005 -2.93835
rclavicle 4.17448e-015 -1.27222e-014
rhumerus 16.2356 29.7156 -73.0101
rradius 124.99
rwrist -3.26682
rhand -29.4212 15.1004
rfingers 7.12502
rthumb -2.75852 -14.8615
lclavicle 4.17448e-015 -1.27222e-014
lhumerus -13.9679 -7.17924 56.5141
lradius 140.348
lwrist 0.804778
lhand -28.5729 1.99333
lfingers 7.12502
lthumb -1.93918 31.9643
rfemur 13.521 7.64995 22.4098
rtibia 31.176
rfoot -17.2145 -12.3343
rtoes 14.212
lfemur -90.9003 21.0713 43.549
ltibia 28.9583
lfoot -5.50312 55.597
ltoes 27.7973
2227
root 0.71283 15.3325 4.14161 -30.1503 -36.8804 11.1111
lowerback 9.35252 4.11403 9.5855
upperback 4.28956 6.19038 -6.91691
thorax 1.18328 3.46717 -13.4229
lowerneck -1.46516 8.25537 14.3009
upperneck 43.3091 11.733 -4.56611
head 17.5193 6.49227 -2.92808
rclavicle -4.69132e-014 2.62396e-014
rhumerus 16.0907 30.031 -72.9454
rradius 125.088
rwrist -3.31857
rhand -29.3988 15.2383
rfingers 7.12502
rthumb -2.7369 -14.7239
lclavicle -4.69132e-014 2.62396e-014
lhumerus -13.7928 -7.42981 57.1308
lradius 140.029
lwrist 0.791043
lhand -28.5263 2.21698
lfingers 7.12502
lthumb -1.89417 32.1883
rfemur 13.7908 7.54968 22.8878
rtibia 30.9414
rfoot -17.1357 -12.2803
rtoes 14.2771
lfemur -88.3269 22.0205 44.2118
ltibia 24.3152
lfoot -27.7705 51.1031
ltoes 43.103
2228
root 0.708412 15.3216 4.1462 -29.9967 -37.154 10.7447
lowerback 9.29723 4.02665 9.76751
upperback 4.42592 6.08428 -6.75202
thorax 1.32971 3.43036 -13.3257
lowerneck -1.31746 8.34795 14.2607
upperneck 43.4139 11.9277 -4.63894
head 17.5793 6.55901 -2.93053
rclavicle -5.74488e-014 5.96354e-014
rhumerus 15.9876 30.2599 -72.827
rradius 125.076
rwrist -3.27475
rhand -29.4449 15.2789
rfingers 7.12502
rthumb -2.78143 -14.6827
lclavicle -5.74488e-014 5.96354e-014
lhumerus -13.6382 -7.73063 57.7994
lradius 139.726
lwrist 0.744127
lhand -28.1609 2.41506
lfingers 7.12502
lthumb -1.54134 32.3892
rfemur 13.8863 7.47667 23.2782
rtibia 30.8548
rfoot -17.1288 -12.223
rtoes 14.3549
lfemur -86.3584 22.8189 44.7521
ltibia 20.9418
lfoot -40.3306 43.5127
ltoes 50.5505
2229
root 0.705603 15.3107 4.15058 -29.8051 -37.3755 10.5041
lowerback 9.15304 3.9572 9.84637
upperback 4.51197 5.98649 -6.63128
thorax 1.46644 3.39273 -13.2116
lowerneck -1.14481 8.43203 14.2386
upperneck 43.5357 12.1093 -4.71061
head 17.6442 6.62396 -2.93925
rclavicle 2.74323e-014 1.74931e-014
rhumerus 15.9446 30.4113 -72.6547
rradius 124.964
rwrist -3.17444
rhand -29.5431 15.2488
rfingers 7.12502
rthumb -2.87621 -14.7116
lclavicle 2.74323e-014 1.74931e-014
lhumerus -13.5252 -8.05754 58.5033
lradius 139.465
lwrist 0.69736
lhand -27.5433 2.51564
lfingers 7.12502
lthumb -0.94486 32.4933
rfemur 13.7653 7.42354 23.5202
rtibia 30.9614
rfoot -17.1974 -12.1462
rtoes 14.4264
lfemur -85.3024 23.4204 45.0207
ltibia 19.1254
lfoot -44.5983 39.04
ltoes 52.9991
2230
root 0.704684 15.3007 4.15278 -29.6286 -37.5169 10.4234
lowerback 8.96317 3.89953 9.79768
upperback 4.55817 5.89017 -6.5674
thorax 1.57778 3.34967 -13.0846
lowerneck -0.9615 8.50875 14.2344
upperneck 43.6752 12.275 -4.77383
head 17.7172 6.68644 -2.95063
rclavicle -3.08116e-014 8.74653e-015
rhumerus 15.9645 30.4892 -72.4331
rradius 124.776
rwrist -3.067
rhand -29.6664 15.178
rfingers 7.12502
rthumb -2.99526 -14.7807
lclavicle -3.08116e-014 8.74653e-015
lhumerus -13.4481 -8.41203 59.2183
lradius 139.253
lwrist 0.684043
lhand -26.8075 2.48543
lfingers 7.12502
lthumb -0.234134 32.465
rfemur 13.4562 7.3761 23.5779
rtibia 31.263
rfoot -17.3431 -12.0458
rtoes 14.4916
lfemur -85.2602 23.745 44.9397
ltibia 18.9813
lfoot -45.0098 38.2466
ltoes 53.2392
2231
root 0.70543 15.2915 4.15185 -29.5113 -37.5521 10.519
lowerback 8.76832 3.84352 9.60038
upperback 4.58061 5.78364 -6.57203
thorax 1.65444 3.29493 -12.9484
lowerneck -0.796752 8.58516 14.2551
upperneck 43.8296 12.4275 -4.81983
head 17.8041 6.74882 -2.95965
rclavicle -1.09928e-013 5.1684e-014
rhumerus 16.0613 30.5061 -72.1804
rradius 124.543
rwrist -2.99959
rhand -29.7568 15.0734
rfingers 7.12502
rthumb -3.08258 -14.884
lclavicle -1.09928e-013 5.1684e-014
lhumerus -13.3983 -8.81104 59.9092
lradius 139.106
lwrist 0.69776
lhand -26.0954 2.42392
lfingers 7.12502
lthumb 0.453633 32.4032
rfemur 13.0157 7.32951 23.4407
rtibia 31.7227
rfoot -17.5602 -11.9418
rtoes 14.5508
lfemur -86.09 23.7652 44.5082
ltibia 20.2948
lfoot -42.6443 40.6718
ltoes 51.8143
2232
root 0.707152 15.2824 4.1481 -29.4632 -37.4706 10.7559
lowerback 8.6012 3.78518 9.27028
upperback 4.59134 5.66598 -6.63913
thorax 1.69286 3.22874 -12.8077
lowerneck -0.653547 8.65534 14.299
upperneck 43.9872 12.554 -4.84113
head 17.8957 6.80642 -2.96433
rclavicle -1.00187e-013 -3.18055e-015
rhumerus 16.2222 30.4586 -71.901
rradius 124.31
rwrist -3.024
rhand -29.7762 14.9632
rfingers 7.12502
rthumb -3.1013 -14.994
lclavicle -1.00187e-013 -3.18055e-015
lhumerus -13.3518 -9.28292 60.5505
lradius 139.012
lwrist 0.717671
lhand -25.5584 2.36457
lfingers 7.12502
lthumb 0.97225 32.3421
rfemur 12.5158 7.28323 23.1511
rtibia 32.2761
rfoot -17.8256 -11.8725
rtoes 14.5904
lfemur -87.5081 23.4971 43.7959
ltibia 22.634
lfoot -36.4782 45.8708
ltoes 47.9964
2233
root 0.709087 15.2733 4.14197 -29.4718 -37.2801 11.0487
lowerback 8.50145 3.71451 8.8643
upperback 4.61039 5.53084 -6.74835
thorax 1.6956 3.15028 -12.6754
lowerneck -0.551833 8.71762 14.3596
upperneck 44.1376 12.6491 -4.83512
head 17.9882 6.85582 -2.96206
rclavicle -2.34566e-014 1.11319e-014
rhumerus 16.4468 30.3521 -71.5944
rradius 124.105
rwrist -3.15283
rhand -29.7156 14.8549
rfingers 7.12502
rthumb -3.04285 -15.1032
lclavicle -2.34566e-014 1.11319e-014
lhumerus -13.2827 -9.82058 61.1247
lradius 138.969
lwrist 0.731244
lhand -25.2368 2.36426
lfingers 7.12502
lthumb 1.28282 32.3401
rfemur 12.0448 7.23646 22.8019
rtibia 32.8464
rfoot -18.105 -11.8796
rtoes 14.6367
lfemur -89.2381 22.9479 42.9291
ltibia 25.616
lfoot -24.5379 51.8911
ltoes 40.3301
2234
root 0.710477 15.2643 4.13384 -29.5273 -36.9891 11.3223
lowerback 8.50156 3.62774 8.43919
upperback 4.6488 5.37865 -6.87974
thorax 1.66119 3.06158 -12.5647
lowerneck -0.483313 8.76335 14.4267
upperneck 44.2726 12.7 -4.79733
head 18.0702 6.89093 -2.95156
rclavicle -6.67916e-014 3.18055e-014
rhumerus 16.7085 30.1928 -71.2666
rradius 123.958
rwrist -3.36811
rhand -29.5842 14.7373
rfingers 7.12502
rthumb -2.91589 -15.2225
lclavicle -6.67916e-014 3.18055e-014
lhumerus -13.1863 -10.4273 61.6319
lradius 138.964
lwrist 0.711058
lhand -25.144 2.43818
lfingers 7.12502
lthumb 1.37248 32.4135
rfemur 11.6872 7.18036 22.4691
rtibia 33.3536
rfoot -18.3635 -11.985
rtoes 14.7094
lfemur -91.0874 22.1072 42.0104
ltibia 29.0098
lfoot -8.47447 55.2362
ltoes 28.8829
